HIERARCHY
ROOT HipCenter
{
    OFFSET 0.0 0.0 -0.0
    CHANNELS 6 Xposition Yposition Zposition Zrotation Xrotation Yrotation
    JOINT Spine
    {
        OFFSET 0.0 11.285128593444824 0.0
        CHANNELS 3 Zrotation Xrotation Yrotation
        JOINT ShoulderCenter
        {
            OFFSET 0.0 31.728389739990234 0.0
            CHANNELS 3 Zrotation Xrotation Yrotation
            JOINT LeftShoulder
            {
                OFFSET 12.270933151245117 0.0 0.0
                CHANNELS 3 Zrotation Xrotation Yrotation
                JOINT LeftElbow
                {
                    OFFSET 28.583253860473633 0.0 0.0
                    CHANNELS 3 Zrotation Xrotation Yrotation
                    JOINT LeftWrist
                    {
                        OFFSET 27.694923400878906 0.0 0.0
                        CHANNELS 3 Zrotation Xrotation Yrotation
                        JOINT LeftHand
                        {
                            OFFSET 3.640084981918335 0.0 0.0
                            CHANNELS 3 Zrotation Xrotation Yrotation
                            End Site
                            {
                                OFFSET 1.4560339450836182 0.0 0.0
                            }
                        }
                    }
                }
            }
            JOINT RightShoulder
            {
                OFFSET -12.270933151245117 0.0 0.0
                CHANNELS 3 Zrotation Xrotation Yrotation
                JOINT RightElbow
                {
                    OFFSET -28.583253860473633 0.0 0.0
                    CHANNELS 3 Zrotation Xrotation Yrotation
                    JOINT RightWrist
                    {
                        OFFSET -27.694923400878906 0.0 0.0
                        CHANNELS 3 Zrotation Xrotation Yrotation
                        JOINT RightHand
                        {
                            OFFSET -3.640084981918335 0.0 0.0
                            CHANNELS 3 Zrotation Xrotation Yrotation
                            End Site
                            {
                                OFFSET -1.4560339450836182 0.0 0.0
                            }
                        }
                    }
                }
            }
            End Site
            {
                OFFSET 0.0 12.691354751586914 0.0
            }
        }
    }
    JOINT LeftHip
    {
        OFFSET 12.988240242004395 0.0 0.0
        CHANNELS 3 Zrotation Xrotation Yrotation
        JOINT LeftKnee
        {
            OFFSET 0.0 -34.830108642578125 0.0
            CHANNELS 3 Zrotation Xrotation Yrotation
            JOINT LeftAnkle
            {
                OFFSET 0.0 -38.89939498901367 0.0
                CHANNELS 3 Zrotation Xrotation Yrotation
                JOINT LeftFoot
                {
                    OFFSET 0.0 -10.54720401763916 0.0
                    CHANNELS 3 Zrotation Xrotation Yrotation
                    End Site
                    {
                        OFFSET 0.0 0.0 4.218881607055664
                    }
                }
            }
        }
    }
    JOINT RightHip
    {
        OFFSET -12.988240242004395 0.0 0.0
        CHANNELS 3 Zrotation Xrotation Yrotation
        JOINT RightKnee
        {
            OFFSET 0.0 -34.830108642578125 0.0
            CHANNELS 3 Zrotation Xrotation Yrotation
            JOINT RightAnkle
            {
                OFFSET 0.0 -38.89939498901367 0.0
                CHANNELS 3 Zrotation Xrotation Yrotation
                JOINT RightFoot
                {
                    OFFSET 0.0 -10.54720401763916 0.0
                    CHANNELS 3 Zrotation Xrotation Yrotation
                    End Site
                    {
                        OFFSET 0.0 0.0 4.218881607055664
                    }
                }
            }
        }
    }
}
MOTION
Frames: 5
Frame Time: 0.03333333333333333
-50.70000457763672 -14.90000057220459 33.099998474121094 8.707335665623798 4.074943374637153 157.06072184159285 1.3782637631244588 23.980888828972898 0.864913911083379 -2.046254929143967e-07 5.20271578759279e-07 0.3530105398420093 97.05092970117087 -4.379217829305268 166.30498968761518 1.596463396362741e-07 3.521777538892602e-06 103.03704310508127 179.9999929598571 -38.79057430967974 -142.18732654885463 3.975693351829396e-16 -7.951386703658792e-16 3.578124016646457e-15 -98.94377049309793 -41.023935520676936 175.4648833258826 -1.5896246103308545e-07 -2.357841444118054e-06 -91.48765545826882 -179.9999983903067 -46.00065309208961 148.63570142636786 -4.522351187705938e-15 9.806285964906358e-33 -2.4848083448933725e-16 8.758114192936265 5.898067111213705 -31.731877840025696 -26.92262869128115 31.411492204090973 -7.832951545800545 102.03632203729745 -7.36945960804962 164.3608537896093 3.1805546814635168e-15 0.0 0.0 14.22888136889543 -8.358858551592078 18.943391730597458 9.444177481103138 28.370296190492674 13.770594619284859 -106.40031033550831 -22.933120470072485 -155.23600342839373 -4.634601612952667e-31 -6.361109362927033e-15 -8.34895603884173e-15
-48.599998474121094 -14.800000190734863 31.299999237060547 8.707392974906478 3.566990575439119 148.16828477190006 0.6286484668414523 23.606066656527794 0.78037669819581 1.30525872634591e-06 -7.900327786863179e-07 0.9621323810568313 96.35982436874316 -3.346928589178384 166.09073059694325 -3.83797052271172e-06 -1.1758578030431836e-06 102.84518284599278 179.99999907145832 -41.314639354047536 -141.025178435986 7.951386703658792e-16 2.385416011097637e-15 -7.156248033292912e-15 -98.84278546929615 -40.86572678273058 175.1715450980519 -1.701844691083226e-06 -7.06097237291956e-07 -90.61425248841353 179.99999883332237 -42.75642986815442 148.57035041079476 -1.1927080055488188e-15 -7.951386703658792e-16 -1.1927080055488188e-15 10.706951440709787 -0.30660148084440253 -27.432905015408405 -39.04909260146685 42.077212526553204 -5.802990088168252 87.18559448021425 -9.136847275473437 111.47934547003753 -3.975693351829395e-16 0.0 0.0 15.633654599774317 -4.656486042246681 20.4768866848891 7.44549806058703 26.126576566001845 12.160677079317233 -103.7076213413463 -28.225723635999987 -147.84066935799737 6.3611093629270335e-15 -6.3611093629270335e-15 1.1927080055488192e-15
-46.599998474121094 -15.000000953674316 29.399999618530273 7.1250237156019605 2.5364366671388097 140.707061585312 -1.057971495880093 22.41500182996499 1.0210427816849854 -2.4822882060701096e-08 1.5300958047674258e-06 1.5801191158559336 96.59640622592721 -4.002614161007007 167.21053962846645 -7.233856051933943e-06 1.4448928279553668e-06 101.9804941205713 179.99999973373957 -38.342419113133616 -141.9690741218041 1.5902773407317584e-15 -7.724336021587778e-32 -5.565970692561154e-15 -99.05595397833056 -40.033198689490256 174.5393442010461 2.1268678073633015e-06 2.110308889920292e-06 -90.40455935896179 -179.99999662159823 -44.082523796133984 147.73713700392653 1.5902773407317584e-15 7.951386703658792e-16 1.5902773407317584e-15 8.759640390877601 -9.310951869765267 -20.02893091215571 -40.103160051383334 53.26402827426976 -7.486659674260246 84.77331933399358 -21.287113301202425 90.90250369227073 -1.5902773407317584e-15 6.3611093629270335e-15 -7.951386703658791e-16 15.599934702530517 -2.797924181633696 23.50327763104241 6.567772941012091 25.557002533783372 11.16913156978313 -104.33421769536905 -32.58137039063273 -143.84152195397746 6.3611093629270335e-15 3.531125038440127e-31 6.3611093629270335e-15
-44.20000076293945 -15.199999809265137 27.000001907348633 6.620772500389928 2.031767454173534 134.81490222675976 -1.552165703016959 22.02380332656069 1.4280245391177413 -2.3979055899678585e-07 7.064432177916722e-07 1.5452363150686743 96.84119219990866 -4.689767732398175 168.7712777285778 -3.413323789540621e-06 1.8051674115207443e-07 100.46513508817101 179.99999681576327 -32.72132777333422 -141.65430017167822 -9.931289170612858e-32 -1.5902773407317584e-15 -7.156248033292914e-15 -98.77474183878168 -38.91947646735187 175.14745708200508 -2.6846338549729273e-06 2.6927252353406223e-06 -90.2029507087032 -179.9999999113935 -49.2349056027337 147.0480363273256 5.565970692561154e-15 -1.5448672043175555e-31 -3.1805546814635168e-15 4.898918276248269 -17.22834985911255 -11.033592402960526 -19.84262668876946 60.50601881111107 -24.5188586630611 87.97825280866566 -25.588407409665894 114.60588983193163 3.975693351829396e-15 5.517382872562698e-32 1.5902773407317584e-15 15.695206276001258 -0.35888110806676377 24.605749961066376 5.794978020146219 25.81816625857565 11.283501465185266 -103.02700765575379 -35.212122891207784 -140.57789146397272 -6.3611093629270335e-15 0.0 0.0
-41.29999923706055 -15.09999942779541 24.399999618530273 5.609267312230226 1.5269941656340373 129.5424631567886 -2.1894457811152224 21.251933450834276 1.307148518461472 -6.581118389102503e-07 6.748147537438097e-07 2.4045365648212287 97.13378631186579 -5.959785291934487 170.9075730328496 -7.5818280545454624e-06 3.2814563169122263e-06 98.69663739466235 179.9999985070901 -33.16822780401419 -143.084051087547 -3.1805546814635164e-15 -4.770832022195274e-15 -2.385416011097637e-15 -98.47645853225158 -37.59247446777389 176.22002380127543 3.112903732752269e-07 -8.698370953400897e-07 -90.22289328571536 179.99999902209987 -48.72909637691362 146.78634188456655 7.951386703658792e-16 1.5902773407317584e-15 -7.951386703658792e-16 1.029994201105381 -22.533628455897777 -7.336636534372797 0.29682613350843345 53.782364529015815 -39.45379655183187 90.11438019257572 -28.878473936098484 134.08776803021433 1.2424041724466862e-16 0.0 0.0 14.602793679982378 3.942913317665644 27.974474566883167 5.387088509938334 21.824313490925427 8.99861682910472 -99.67917302820592 -37.547466971139954 -134.6101325217339 0.0 0.0 0.0
